<svg width="600" height="600" viewBox="0 0 600 600" fill="none" xmlns="http://www.w3.org/2000/svg">
<path fill-rule="evenodd" clip-rule="evenodd" d="M550 278H527.5C516.73 278 508 286.73 508 297.5C508 308.27 516.73 317 527.5 317H549.431C540.692 447.143 432.358 550 300 550C161.929 550 50 438.071 50 300C50 161.929 161.929 50.0002 300 50.0002L550 50V79H527.5C516.73 79 508 87.7304 508 98.5C508 109.27 516.73 118 527.5 118H550V145H528C516.954 145 508 153.954 508 165C508 176.046 516.954 185 528 185H550V211H528C516.954 211 508 219.954 508 231C508 242.046 516.954 251 528 251H550V278ZM300 475C396.65 475 475 396.65 475 300C475 203.35 396.65 125 300 125C203.35 125 125 203.35 125 300C125 396.65 203.35 475 300 475Z" fill="white"/>
<path d="M399.593 242.5L300 185L259.004 208.669C277.498 219.02 290 238.8 290 261.5C290 294.913 262.913 322 229.5 322C218.955 322 209.039 319.302 200.407 314.559V357.5L300 415L399.593 357.5V242.5Z" fill="white"/>
</svg>
